<?xml version="1.0" encoding="UTF-8" standalone="no"?><!DOCTYPE svg PUBLIC "-//W3C//DTD SVG 1.1//EN" "http://www.w3.org/Graphics/SVG/1.1/DTD/svg11.dtd"><svg width="100%" height="100%" viewBox="0 0 31 30" version="1.1" xmlns="http://www.w3.org/2000/svg" xmlns:xlink="http://www.w3.org/1999/xlink" xml:space="preserve" xmlns:serif="http://www.serif.com/" style="fill-rule:evenodd;clip-rule:evenodd;stroke-linejoin:round;stroke-miterlimit:2;"><rect id="złoto" x="0.04" y="0" width="30" height="30" style="fill:none;"/><g><path d="M10.753,10.195c0.112,-1.942 0.928,-3.84 2.41,-5.322c3.295,-3.296 8.647,-3.296 11.942,-0c3.296,3.295 3.296,8.647 0,11.942c-1.454,1.454 -3.308,2.267 -5.213,2.399c0.045,-2.424 -0.914,-4.848 -2.827,-6.629c-1.78,-1.657 -4.057,-2.451 -6.312,-2.39Z"/><path d="M17.136,24.909c-3.178,3.413 -8.529,3.604 -11.942,0.426c-3.413,-3.178 -3.604,-8.529 -0.427,-11.942c3.178,-3.414 8.529,-3.605 11.943,-0.427c3.413,3.178 3.604,8.529 0.426,11.943Z"/></g></svg>